<svg width="124" height="102" viewBox="0 0 124 102" fill="none" xmlns="http://www.w3.org/2000/svg">
<path d="M94.6134 33.5774L94.6143 33.5769C104.538 28.6959 116.434 32.9789 121.121 43.2406L121.122 43.2423C125.755 53.3382 121.518 65.4321 111.697 70.2611C111.696 70.2611 111.696 70.2611 111.696 70.2611L55.1927 98.0377L55.1923 98.0378C45.1538 102.978 33.1407 98.5179 28.5702 88.1391L28.5696 88.1377L2.77573 29.8007L2.77479 29.7986C-1.74213 19.6459 2.66673 7.61036 12.5484 2.89809L12.5487 2.89796C22.5264 -1.86384 34.4263 2.65435 38.9387 12.9148L38.9393 12.9162L55.9329 51.3951L56.3535 52.3474L57.2881 51.8889L94.6134 33.5774Z" stroke="#008DEB" stroke-width="2"/>
</svg>
