<svg width="739" height="528" viewBox="0 0 739 528" fill="none" xmlns="http://www.w3.org/2000/svg">
<path d="M434.182 135.173L434.191 135.177L434.2 135.182C470.165 154.673 483.122 197.714 463.654 232.331L463.648 232.343L463.642 232.355L462.55 234.422C443.395 268.605 456.567 310.987 492.376 329.732C528.152 348.46 573.072 336.701 593.335 303.184C593.337 303.181 593.339 303.178 593.341 303.175L594.647 301.114L594.652 301.106L594.657 301.098C615.441 266.859 661.604 254.518 698.471 273.822C735.524 293.316 748.907 337.588 728.361 372.611L728.36 372.612C667.188 477.091 528.191 514.784 418.022 456.825L418.021 456.824C307.44 398.878 267.499 267.31 328.651 162.867L328.651 162.866C348.998 128.021 394.927 115.265 432.009 133.938L433.085 134.549L434.182 135.173Z" fill="#FF8A1E" stroke="#FF7B39" stroke-width="2"/>
<path d="M357.613 33.5774L357.614 33.5769C367.538 28.6959 379.434 32.9789 384.121 43.2406L384.122 43.2423C388.755 53.3382 384.518 65.4321 374.697 70.2611C374.696 70.2611 374.696 70.2611 374.696 70.2611L318.193 98.0377L318.192 98.0378C308.154 102.978 296.141 98.5179 291.57 88.1391L291.57 88.1377L265.776 29.8007L265.775 29.7986C261.258 19.6459 265.667 7.61036 275.548 2.89809L275.549 2.89796C285.526 -1.86384 297.426 2.65435 301.939 12.9148L301.939 12.9162L318.933 51.3951L319.353 52.3474L320.288 51.8889L357.613 33.5774Z" fill="#008DEB" stroke="#008DEB" stroke-width="2"/>
<path d="M241.807 118.415L241.824 118.432L241.842 118.448C266.838 141.595 269.13 181.265 246.77 207.288L109.972 366.048L109.972 366.048C87.2692 392.418 48.0342 394.928 22.1643 371.788C-3.71253 348.641 -6.18261 308.617 16.5328 282.231C16.5329 282.231 16.533 282.231 16.5331 282.231L153.33 123.473C175.852 97.4674 214.539 94.595 240.405 116.986L241.092 117.686L241.807 118.415Z" fill="#E31587" stroke="#E31587" stroke-width="2"/>
<path d="M444 404.154C444 472.034 390.912 527 325.5 527C260.088 527 207 472.034 207 404.154C207 336.275 260.088 281.309 325.5 281.309C390.912 281.309 444 336.275 444 404.154Z" fill="#7542E5" stroke="#7542E5" stroke-width="2"/>
</svg>
