<svg width="1440" height="1024" viewBox="0 0 1440 1024" fill="none" xmlns="http://www.w3.org/2000/svg">
<g clip-path="url(#clip0)">
<rect width="1440" height="1024" fill="#F9F9F9"/>
<path d="M757.964 273.017L757.973 273.022L757.982 273.026C853.235 324.671 887.623 438.788 836.01 530.606L836.004 530.617L835.998 530.629L833.126 536.07C833.124 536.074 833.122 536.078 833.12 536.082C783.25 625.095 817.494 735.506 910.805 784.375C1004.08 833.226 1121.15 802.513 1173.92 715.18C1173.92 715.177 1173.92 715.174 1173.92 715.171L1177.37 709.726L1177.37 709.718L1177.38 709.71C1232.45 618.949 1354.69 586.3 1452.27 637.418C1550.4 689.065 1585.93 806.446 1531.45 899.346L1532.31 899.852L1531.45 899.347C1370.27 1174.75 1004.12 1274.04 713.946 1121.31L713.945 1121.31C422.641 968.598 317.339 621.769 478.496 346.403L478.497 346.402C532.417 254.018 654.064 220.279 752.22 269.751L755.081 271.378L757.964 273.017Z" fill="#FF8A1E" stroke="#FF7B39" stroke-width="2"/>
<path d="M1418.39 104.378L1418.39 104.378C1475.29 76.4306 1543.45 101.001 1570.26 159.617L1570.26 159.619C1596.74 217.234 1572.57 286.297 1516.32 313.913L1205.55 466.466L1205.95 467.3L1205.55 466.466C1147.98 494.75 1079.16 469.169 1053.02 409.88L1053.02 409.879L911.151 89.4851L911.15 89.483C885.331 31.5331 910.495 -37.1933 967.079 -64.1378L967.079 -64.1379C1024.31 -91.4102 1092.47 -65.4925 1118.28 -6.87837L1118.28 -6.87696L1211.75 204.454L1212.17 205.405L1213.1 204.947L1418.39 104.378Z" fill="#008DEB" stroke="#008DEB" stroke-width="2"/>
<path d="M346.228 106.457L346.212 106.44L342.424 102.586C272.725 42.3162 168.435 50.0374 107.746 119.982L1 243.632V760.608L359.523 345.31L346.228 106.457ZM346.228 106.457L346.246 106.473M346.228 106.457L346.246 106.473M346.246 106.473C413.584 168.71 419.752 275.347 359.524 345.309L346.246 106.473Z" fill="#E31587" stroke="#E31587" stroke-width="2"/>
<path d="M586 902C586 1062.75 460.382 1193 305.5 1193C150.618 1193 25 1062.75 25 902C25 741.25 150.618 611 305.5 611C460.382 611 586 741.25 586 902Z" fill="#7542E5" stroke="#7542E5" stroke-width="2"/>
</g>
<defs>
<clipPath id="clip0">
<rect width="1440" height="1024" fill="white"/>
</clipPath>
</defs>
</svg>
