<svg width="440" height="264" viewBox="0 0 440 264" fill="none" xmlns="http://www.w3.org/2000/svg">
<path d="M135.182 11.1725L135.191 11.1775L135.2 11.1823C171.165 30.6732 184.122 73.7136 164.654 108.331L164.648 108.343L164.642 108.355L163.55 110.422C144.395 144.605 157.567 186.987 193.376 205.732C229.152 224.46 274.071 212.701 294.335 179.184C294.337 179.181 294.339 179.178 294.341 179.175L295.647 177.114L295.652 177.106L295.657 177.098C316.44 142.86 362.603 130.518 399.469 149.821C436.523 169.315 449.908 213.588 429.361 248.611L429.36 248.612C368.188 353.091 229.191 390.784 119.022 332.825L119.021 332.824C8.44018 274.878 -31.5011 143.31 29.6507 38.8674L29.6513 38.8664C49.9979 4.02051 95.9273 -8.735 133.009 9.93779L134.085 10.549L134.579 9.67953L134.085 10.549L135.182 11.1725Z" stroke="#FF7B39" stroke-width="2"/>
</svg>
